<?xml version="1.0" standalone="no"?><!DOCTYPE svg PUBLIC "-//W3C//DTD SVG 1.1//EN" "http://www.w3.org/Graphics/SVG/1.1/DTD/svg11.dtd"><svg t="1681007732661" class="icon" viewBox="0 0 1024 1024" version="1.1" xmlns="http://www.w3.org/2000/svg" p-id="3099" xmlns:xlink="http://www.w3.org/1999/xlink" width="200" height="200"><path d="M153.6 90.709333L176.298667 51.2a51.2 51.2 0 0 1 44.373333-25.6h494.336l157.610667 166.314667L904.533333 284.842667h-16.298666L707.669333 90.709333z" fill="#B3D9FF" p-id="3100"></path><path d="M716.8 25.6l12.117333 54.442667 190.208 214.016-36.864-133.376L716.8 25.6zM170.666667 128h521.898666L921.6 354.901333V981.333333a17.066667 17.066667 0 0 1-17.066667 17.066667H170.666667a17.066667 17.066667 0 0 1-17.066667-17.066667V145.066667a17.066667 17.066667 0 0 1 17.066667-17.066667z" fill="#96CAFF" p-id="3101"></path><path d="M712.021333 102.4H153.6a25.6 25.6 0 0 0-25.6 25.6v844.8a25.6 25.6 0 0 0 25.6 25.6h716.8a25.6 25.6 0 0 0 25.6-25.6V300.032zM153.6 76.8h569.6L921.6 290.133333v682.666667a51.2 51.2 0 0 1-51.2 51.2H153.6a51.2 51.2 0 0 1-51.2-51.2V128a51.2 51.2 0 0 1 51.2-51.2z" fill="#175AA7" p-id="3102"></path><path d="M161.024 38.4a25.6 25.6 0 0 1 22.186667-12.8h529.578666l150.698667 154.026667 32.426667 110.933333 27.050666 1.194667-36.693333-125.696L723.541333 0H183.210667a51.2 51.2 0 0 0-44.373334 25.6L102.4 88.917333v46.165334l25.6-39.253334zM714.325333 781.824a29.013333 29.013333 0 0 0-8.533333-15.36 42.666667 42.666667 0 0 1-5.461333-5.717333 146.602667 146.602667 0 0 0-38.229334-33.109334c-4.693333-2.730667-9.216-6.058667-13.653333-9.301333l-3.498667-2.474667a9.386667 9.386667 0 0 1-2.474666-2.389333l23.125333-4.693333 8.533333-1.621334c6.912-1.365333 13.909333-2.645333 20.821334-4.266666a7.424 7.424 0 0 0 5.973333-3.925334 7.68 7.68 0 0 0-2.048-7.082666 131.242667 131.242667 0 0 0-23.381333-24.064 238.08 238.08 0 0 0-70.058667-41.813334 10.666667 10.666667 0 0 1-6.741333-5.717333c-3.669333-7.765333-7.509333-15.530667-11.264-23.296-8.533333-17.066667-17.066667-34.56-24.405334-52.309333a252.928 252.928 0 0 0-51.2-76.202667A313.173333 313.173333 0 0 0 460.8 427.52a123.733333 123.733333 0 0 0-71.594667-23.210667 13.994667 13.994667 0 0 1-7.936-3.584l-3.669333-2.56a121.429333 121.429333 0 0 0-17.066667-7.253333 75.690667 75.690667 0 0 0-35.157333-6.912h-0.682667a23.722667 23.722667 0 0 0-24.917333 15.189333 31.146667 31.146667 0 0 0 6.656 28.330667c2.816 4.010667 5.802667 6.997333 8.533333 10.837333l6.058667 7.594667a76.8 76.8 0 0 1 12.885333 21.418667l1.792 5.290666c2.645333 8.021333 5.290667 16.042667 8.533334 23.893334A106.581333 106.581333 0 0 0 366.933333 537.6a4.096 4.096 0 0 1 0 2.389333 36.096 36.096 0 0 1-1.792 6.912v0.853334a146.773333 146.773333 0 0 0-6.741333 73.045333 88.234667 88.234667 0 0 0 17.066667 41.813333 40.618667 40.618667 0 0 0 12.288 10.496 18.602667 18.602667 0 0 0 16.213333 1.109334 19.882667 19.882667 0 0 0 11.178667-12.970667 62.208 62.208 0 0 0 1.706666-7.936l2.389334-13.994667a148.138667 148.138667 0 0 0 24.832 40.021334C454.485333 689.322667 478.890667 716.8 486.4 716.8l6.826667-4.693333-5.802667-8.533334c-0.768-0.853333-1.536-2.730667-2.304-3.413333s-2.133333-2.56-3.242667-3.498667a75.264 75.264 0 0 1-6.656-6.826666 306.176 306.176 0 0 1-51.797333-90.197334c-0.512-1.365333-1.109333-2.730667-1.792-4.181333l-1.194667-2.645333-2.304-4.693334-3.328 4.010667-3.669333 4.266667-2.986667 3.498666a54.528 54.528 0 0 0-12.288 27.221334l-0.597333 4.181333c-0.938667 6.826667-1.877333 13.482667-2.816 20.736a15.445333 15.445333 0 0 1-6.229333-7.338667 108.373333 108.373333 0 0 1-8.533334-68.864 153.6 153.6 0 0 1 6.314667-22.698666c0.853333-2.304 1.621333-4.608 2.389333-6.997334a20.821333 20.821333 0 0 0-4.949333-22.272 75.093333 75.093333 0 0 1-16.554667-26.368c-2.474667-6.656-4.949333-13.482667-6.741333-20.309333a120.064 120.064 0 0 0-23.381333-46.165333A121.770667 121.770667 0 0 1 325.973333 418.133333a67.242667 67.242667 0 0 1-6.912-13.141333 4.864 4.864 0 0 1 0.768-5.034667 5.461333 5.461333 0 0 1 5.461334-1.365333 109.141333 109.141333 0 0 1 43.861333 21.589333 22.613333 22.613333 0 0 0 12.885333 5.632h2.901334l8.533333 0.512a73.472 73.472 0 0 1 28.245333 6.058667 231.424 231.424 0 0 1 112.213334 107.52c5.802667 11.008 10.837333 22.784 15.786666 34.133333 2.816 6.485333 5.546667 12.970667 8.533334 19.370667 4.522667 9.728 9.301333 19.370667 13.994666 29.013333l4.096 8.533334a30.976 30.976 0 0 0 19.626667 16.128l2.986667 1.024a143.274667 143.274667 0 0 1 46.08 21.248c5.290667 4.096 10.922667 7.850667 16.384 11.52 3.413333 2.304 6.741333 4.522667 10.069333 6.912l0.682667 0.512h-2.986667a129.109333 129.109333 0 0 0-52.224 9.984 7.594667 7.594667 0 0 0-5.034667 11.52 56.32 56.32 0 0 0 11.946667 18.688 117.589333 117.589333 0 0 0 37.888 26.197333 160.085333 160.085333 0 0 1 42.666667 27.050667 29.525333 29.525333 0 0 0 3.242666 2.474666l8.533334 6.229334z" fill="#175AA7" p-id="3103"></path><path d="M378.197333 441.856a19.712 19.712 0 0 0-14.933333 2.218667l-3.328 2.048 2.730667 2.816a79.445333 79.445333 0 0 1 17.066666 27.392l1.365334 3.584 3.242666-1.962667a18.944 18.944 0 0 0 5.973334-27.306667 19.797333 19.797333 0 0 0-12.458667-8.533333" fill="#175AA7" p-id="3104"></path></svg>